<svg xmlns="http://www.w3.org/2000/svg" xmlns:xlink="http://www.w3.org/1999/xlink" width="200" zoomAndPan="magnify" viewBox="0 0 150 37.5" height="50" preserveAspectRatio="xMidYMid meet" version="1.0"><defs><g/><clipPath id="8a52ded9a8"><path d="M 43 0 L 143 0 L 143 37.007812 L 43 37.007812 Z M 43 0 " clip-rule="nonzero"/></clipPath><clipPath id="f30dfc2743"><path d="M 16.003906 7 L 53.75 7 L 53.75 13 L 16.003906 13 Z M 16.003906 7 " clip-rule="nonzero"/></clipPath><clipPath id="4dca5f362b"><path d="M 16.003906 13 L 53.75 13 L 53.75 30.855469 L 16.003906 30.855469 Z M 16.003906 13 " clip-rule="nonzero"/></clipPath></defs><g clip-path="url(#8a52ded9a8)"><path stroke-linecap="butt" transform="matrix(0.929606, 0, 0, 0.929606, 45.800379, -2.023267)" fill="none" stroke-linejoin="miter" d="M 35.066521 18.228299 C 35.066521 18.467816 35.037106 18.656908 34.978278 18.799778 L 32.461251 25.14487 L 29.019774 17.597992 L 30.63336 17.597992 L 30.63336 17.123161 L 22.817552 17.123161 L 22.817552 17.597992 L 24.43534 17.597992 L 30.03667 29.998235 L 31.053565 29.998235 L 35.549756 18.770364 C 35.730444 18.329149 35.961557 18.026601 36.251498 17.854317 C 36.537238 17.682033 36.915422 17.597992 37.377647 17.597992 L 37.377647 17.123161 L 33.839523 17.123161 L 33.839523 17.597992 C 34.276536 17.597992 34.591689 17.665225 34.780782 17.795488 C 34.969874 17.929954 35.066521 18.072824 35.066521 18.228299 Z M 45.092607 17.421506 C 45.869986 17.421506 46.496091 17.522355 46.962518 17.724054 C 47.437349 17.92155 47.672664 18.081228 47.672664 18.198885 C 47.231449 18.257714 46.853265 18.446806 46.538111 18.770364 C 46.231362 19.089719 46.080088 19.509924 46.080088 20.026776 C 46.080088 20.484799 46.243968 20.883994 46.57593 21.224359 C 46.907891 21.564725 47.361712 21.737009 47.937393 21.737009 C 48.555094 21.737009 49.021521 21.547917 49.340877 21.165531 C 49.660233 20.787346 49.824112 20.337727 49.824112 19.812471 C 49.824112 19.518328 49.752678 19.198972 49.609808 18.862809 C 49.475342 18.522443 49.219018 18.203087 48.849237 17.904742 C 48.483659 17.602194 47.966807 17.358476 47.29448 17.169383 C 46.626354 16.976089 45.760732 16.883644 44.706018 16.883644 C 43.626092 16.883644 42.668025 17.076938 41.831818 17.467729 C 40.991408 17.858519 40.27706 18.366967 39.688773 18.997274 C 39.100487 19.623379 38.650868 20.341929 38.34832 21.152925 C 38.054177 21.959718 37.902903 22.787521 37.902903 23.623729 C 37.902903 24.464138 38.041571 25.28774 38.323108 26.094533 C 38.604645 26.901326 39.029052 27.615674 39.592126 28.245981 C 40.163605 28.872086 40.873751 29.384736 41.722564 29.771325 C 42.57558 30.162115 43.567263 30.359611 44.706018 30.359611 C 46.239766 30.359611 47.52139 29.989831 48.550892 29.254473 C 49.580394 28.514912 50.294742 27.552643 50.693936 26.371868 C 50.710744 26.334049 50.723351 26.275221 50.723351 26.199584 C 50.723351 25.976875 50.630906 25.867622 50.450218 25.867622 C 50.315752 25.867622 50.219105 25.968471 50.160276 26.17017 C 49.996396 26.645001 49.75688 27.09462 49.433322 27.514825 C 49.118168 27.93503 48.739984 28.309012 48.294567 28.640974 C 47.857554 28.964531 47.370117 29.225058 46.840659 29.41415 C 46.311201 29.603243 45.773338 29.69989 45.214466 29.69989 C 44.693412 29.69989 44.256399 29.624253 43.907629 29.464575 C 43.563061 29.304897 43.277322 29.035966 43.058816 28.65358 C 42.840309 28.275396 42.684833 27.775352 42.592388 27.157651 C 42.504145 26.535748 42.457923 25.758369 42.457923 24.81711 L 42.457923 22.426145 C 42.457923 21.501695 42.504145 20.728518 42.592388 20.098211 C 42.684833 19.472106 42.836107 18.955254 43.046209 18.556059 C 43.256312 18.156865 43.521041 17.871125 43.848801 17.694639 C 44.180762 17.513951 44.596765 17.421506 45.092607 17.421506 Z M 65.812904 29.519202 L 65.812904 21.043671 C 65.812904 20.203262 65.691045 19.505722 65.443124 18.951052 C 65.195203 18.392179 64.863241 17.950964 64.455643 17.635811 C 64.043842 17.312253 63.564808 17.089544 63.01434 16.963483 C 62.463872 16.829018 61.888191 16.765987 61.287299 16.765987 C 60.770447 16.765987 60.308222 16.837422 59.900623 16.976089 C 59.488822 17.114757 59.13585 17.291243 58.833303 17.509749 C 58.534957 17.732458 58.27443 17.992985 58.055924 18.295532 C 57.837417 18.589676 57.656729 18.888021 57.51386 19.186366 L 57.51386 16.400409 L 51.315839 17.450921 L 51.315839 17.955166 L 52.93783 17.694639 L 52.93783 29.519202 L 51.315839 29.519202 L 51.315839 29.998235 L 58.715645 29.998235 L 58.715645 29.519202 L 57.429819 29.519202 L 57.429819 21.283188 C 57.429819 20.883994 57.51386 20.467991 57.681942 20.039382 C 57.854226 19.610773 58.06853 19.224185 58.329057 18.879617 C 58.585382 18.526645 58.862717 18.236703 59.161062 18.009793 C 59.46361 17.774478 59.753551 17.656821 60.030886 17.656821 C 60.589759 17.656821 60.946933 17.879529 61.098206 18.320744 C 61.24948 18.761959 61.325117 19.438489 61.325117 20.354536 L 61.325117 29.519202 L 60.030886 29.519202 L 60.030886 29.998235 L 67.430692 29.998235 L 67.430692 29.519202 Z M 74.46492 12.09331 L 74.040513 12.09331 C 73.922856 12.849678 73.721158 13.5094 73.427015 14.080878 C 73.141275 14.652357 72.809313 15.135592 72.439533 15.534787 C 72.069753 15.938183 71.670559 16.265943 71.24195 16.522268 C 70.813341 16.782795 70.388934 16.980291 69.968729 17.123161 L 68.350941 17.123161 L 68.350941 17.597992 L 69.968729 17.597992 L 69.968729 24.728867 C 69.968729 25.825602 70.103195 26.733244 70.372126 27.455996 C 70.645259 28.170344 71.015039 28.746025 71.481466 29.174634 C 71.952096 29.603243 72.498362 29.90579 73.128669 30.086478 C 73.754774 30.267166 74.4229 30.359611 75.124642 30.359611 C 76.343236 30.359611 77.229868 30.11169 77.784538 29.611647 C 78.347612 29.111603 78.704786 28.430871 78.868666 27.573654 L 78.868666 27.485411 C 78.868666 27.266904 78.776221 27.157651 78.595533 27.157651 C 78.536705 27.157651 78.477876 27.182863 78.414845 27.241692 C 78.356017 27.30052 78.318198 27.392965 78.297188 27.514825 C 78.196339 28.111516 77.969428 28.582145 77.616456 28.926713 C 77.271888 29.262877 76.868492 29.430959 76.410468 29.430959 C 75.649898 29.430959 75.137248 29.098997 74.868317 28.443477 C 74.599386 27.783756 74.46492 26.708032 74.46492 25.212103 L 74.46492 17.597992 L 76.708814 17.597992 L 76.708814 17.123161 L 74.46492 17.123161 Z M 74.46492 12.09331 " stroke="#000000" stroke-width="4.49331" stroke-opacity="1" stroke-miterlimit="4"/></g><g fill="#d9d9d9" fill-opacity="1"><g transform="translate(66.455069, 25.864922)"><g><path d="M 11.9375 -10.9375 C 11.9375 -10.71875 11.910156 -10.539062 11.859375 -10.40625 L 9.515625 -4.515625 L 6.328125 -11.53125 L 7.828125 -11.53125 L 7.828125 -11.96875 L 0.5625 -11.96875 L 0.5625 -11.53125 L 2.0625 -11.53125 L 7.265625 0 L 8.21875 0 L 12.390625 -10.4375 C 12.554688 -10.84375 12.773438 -11.125 13.046875 -11.28125 C 13.316406 -11.445312 13.664062 -11.53125 14.09375 -11.53125 L 14.09375 -11.96875 L 10.796875 -11.96875 L 10.796875 -11.53125 C 11.210938 -11.53125 11.503906 -11.46875 11.671875 -11.34375 C 11.847656 -11.226562 11.9375 -11.09375 11.9375 -10.9375 Z M 11.9375 -10.9375 "/></g></g></g><g fill="#d9d9d9" fill-opacity="1"><g transform="translate(80.676247, 25.864922)"><g><path d="M 7.046875 -11.6875 C 7.765625 -11.6875 8.34375 -11.59375 8.78125 -11.40625 C 9.21875 -11.226562 9.4375 -11.082031 9.4375 -10.96875 C 9.03125 -10.914062 8.679688 -10.738281 8.390625 -10.4375 C 8.109375 -10.144531 7.96875 -9.753906 7.96875 -9.265625 C 7.96875 -8.835938 8.117188 -8.46875 8.421875 -8.15625 C 8.722656 -7.84375 9.144531 -7.6875 9.6875 -7.6875 C 10.257812 -7.6875 10.691406 -7.863281 10.984375 -8.21875 C 11.285156 -8.570312 11.4375 -8.988281 11.4375 -9.46875 C 11.4375 -9.75 11.367188 -10.046875 11.234375 -10.359375 C 11.109375 -10.671875 10.875 -10.96875 10.53125 -11.25 C 10.195312 -11.53125 9.71875 -11.757812 9.09375 -11.9375 C 8.46875 -12.113281 7.664062 -12.203125 6.6875 -12.203125 C 5.675781 -12.203125 4.78125 -12.019531 4 -11.65625 C 3.226562 -11.289062 2.566406 -10.816406 2.015625 -10.234375 C 1.472656 -9.648438 1.0625 -8.976562 0.78125 -8.21875 C 0.5 -7.46875 0.359375 -6.707031 0.359375 -5.9375 C 0.359375 -5.15625 0.488281 -4.382812 0.75 -3.625 C 1.007812 -2.875 1.40625 -2.207031 1.9375 -1.625 C 2.46875 -1.039062 3.125 -0.566406 3.90625 -0.203125 C 4.695312 0.148438 5.625 0.328125 6.6875 0.328125 C 8.113281 0.328125 9.300781 -0.0078125 10.25 -0.6875 C 11.207031 -1.375 11.875 -2.269531 12.25 -3.375 C 12.269531 -3.40625 12.28125 -3.457031 12.28125 -3.53125 C 12.28125 -3.738281 12.195312 -3.84375 12.03125 -3.84375 C 11.894531 -3.84375 11.800781 -3.75 11.75 -3.5625 C 11.601562 -3.113281 11.378906 -2.691406 11.078125 -2.296875 C 10.785156 -1.910156 10.429688 -1.566406 10.015625 -1.265625 C 9.609375 -0.960938 9.160156 -0.722656 8.671875 -0.546875 C 8.179688 -0.367188 7.675781 -0.28125 7.15625 -0.28125 C 6.675781 -0.28125 6.269531 -0.351562 5.9375 -0.5 C 5.613281 -0.644531 5.347656 -0.894531 5.140625 -1.25 C 4.941406 -1.601562 4.800781 -2.066406 4.71875 -2.640625 C 4.632812 -3.222656 4.59375 -3.945312 4.59375 -4.8125 L 4.59375 -7.046875 C 4.59375 -7.898438 4.632812 -8.617188 4.71875 -9.203125 C 4.800781 -9.785156 4.9375 -10.257812 5.125 -10.625 C 5.320312 -11 5.570312 -11.269531 5.875 -11.4375 C 6.1875 -11.601562 6.578125 -11.6875 7.046875 -11.6875 Z M 7.046875 -11.6875 "/></g></g></g><g fill="#d9d9d9" fill-opacity="1"><g transform="translate(93.088468, 25.864922)"><g><path d="M 13.890625 -0.453125 L 13.890625 -8.328125 C 13.890625 -9.109375 13.773438 -9.753906 13.546875 -10.265625 C 13.316406 -10.785156 13.007812 -11.191406 12.625 -11.484375 C 12.25 -11.785156 11.804688 -12 11.296875 -12.125 C 10.785156 -12.25 10.25 -12.3125 9.6875 -12.3125 C 9.207031 -12.3125 8.773438 -12.242188 8.390625 -12.109375 C 8.015625 -11.984375 7.6875 -11.816406 7.40625 -11.609375 C 7.125 -11.398438 6.878906 -11.15625 6.671875 -10.875 C 6.472656 -10.601562 6.3125 -10.328125 6.1875 -10.046875 L 6.1875 -12.640625 L 0.421875 -11.671875 L 0.421875 -11.1875 L 1.921875 -11.4375 L 1.921875 -0.453125 L 0.421875 -0.453125 L 0.421875 0 L 7.296875 0 L 7.296875 -0.453125 L 6.09375 -0.453125 L 6.09375 -8.109375 C 6.09375 -8.472656 6.171875 -8.851562 6.328125 -9.25 C 6.492188 -9.65625 6.695312 -10.019531 6.9375 -10.34375 C 7.175781 -10.664062 7.429688 -10.929688 7.703125 -11.140625 C 7.984375 -11.359375 8.253906 -11.46875 8.515625 -11.46875 C 9.035156 -11.46875 9.363281 -11.265625 9.5 -10.859375 C 9.644531 -10.453125 9.71875 -9.820312 9.71875 -8.96875 L 9.71875 -0.453125 L 8.515625 -0.453125 L 8.515625 0 L 15.390625 0 L 15.390625 -0.453125 Z M 13.890625 -0.453125 "/></g></g></g><g fill="#d9d9d9" fill-opacity="1"><g transform="translate(108.756808, 25.864922)"><g><path d="M 6.265625 -16.65625 L 5.875 -16.65625 C 5.757812 -15.945312 5.566406 -15.328125 5.296875 -14.796875 C 5.035156 -14.265625 4.734375 -13.8125 4.390625 -13.4375 C 4.046875 -13.070312 3.671875 -12.769531 3.265625 -12.53125 C 2.867188 -12.289062 2.476562 -12.101562 2.09375 -11.96875 L 0.578125 -11.96875 L 0.578125 -11.53125 L 2.09375 -11.53125 L 2.09375 -4.90625 C 2.09375 -3.882812 2.21875 -3.035156 2.46875 -2.359375 C 2.71875 -1.691406 3.0625 -1.160156 3.5 -0.765625 C 3.9375 -0.367188 4.445312 -0.0859375 5.03125 0.078125 C 5.613281 0.242188 6.226562 0.328125 6.875 0.328125 C 8.007812 0.328125 8.835938 0.0976562 9.359375 -0.359375 C 9.878906 -0.828125 10.210938 -1.457031 10.359375 -2.25 L 10.359375 -2.34375 C 10.359375 -2.539062 10.273438 -2.640625 10.109375 -2.640625 C 10.054688 -2.640625 10 -2.613281 9.9375 -2.5625 C 9.882812 -2.507812 9.847656 -2.425781 9.828125 -2.3125 C 9.734375 -1.75 9.523438 -1.3125 9.203125 -1 C 8.878906 -0.6875 8.503906 -0.53125 8.078125 -0.53125 C 7.367188 -0.53125 6.890625 -0.832031 6.640625 -1.4375 C 6.390625 -2.050781 6.265625 -3.054688 6.265625 -4.453125 L 6.265625 -11.53125 L 8.359375 -11.53125 L 8.359375 -11.96875 L 6.265625 -11.96875 Z M 6.265625 -16.65625 "/></g></g></g><g clip-path="url(#f30dfc2743)"><path fill="#000000" d="M 47.972656 9.332031 C 43.085938 6.585938 37.738281 6.433594 31.527344 8.917969 C 26.242188 11.03125 22.585938 11.988281 16.046875 11.726562 C 21.957031 12.84375 27.210938 11.339844 32.113281 9.558594 C 37.382812 7.644531 41.667969 7.667969 45.695312 9.585938 C 47.65625 10.519531 49.160156 12.171875 50.652344 12.785156 C 51.632812 13.191406 53.1875 13.097656 53.707031 11.589844 C 52.007812 12.519531 51.222656 11.453125 47.972656 9.332031 Z M 47.972656 9.332031 " fill-opacity="1" fill-rule="evenodd"/></g><g clip-path="url(#4dca5f362b)"><path fill="#000000" d="M 52.199219 17.566406 C 45.292969 15.722656 45.945312 11.203125 34.894531 13.847656 C 31.929688 14.554688 28.957031 16.03125 26.003906 16.476562 C 23.832031 16.804688 20.742188 16.605469 17.886719 16.726562 C 17.457031 16.746094 16.554688 16.65625 16.554688 17.316406 C 16.554688 17.867188 17.183594 17.890625 17.585938 17.898438 C 20.539062 18.035156 24.648438 17.722656 27.660156 18.875 C 30.828125 20.082031 34.195312 21.527344 37.199219 22.160156 C 38.917969 22.519531 40.664062 22.601562 42.363281 22.386719 C 39.285156 26.195312 35.28125 29.417969 30.300781 29.074219 C 27.808594 28.902344 27.277344 26.945312 27.789062 25.699219 C 28.429688 24.144531 30.449219 24.519531 30.597656 25.71875 C 30.742188 26.890625 29.300781 27.3125 28.832031 26.53125 C 28.734375 27.15625 29.613281 27.5 30.191406 27.246094 C 31.101562 26.847656 31.355469 25.953125 31.09375 25.199219 C 30.90625 24.65625 30.433594 24.199219 29.808594 23.988281 C 28.503906 23.542969 26.910156 24.535156 26.757812 26.449219 C 26.628906 28.050781 27.523438 29.875 30.171875 30.175781 C 36.1875 30.859375 41.855469 26.308594 45.347656 21.675781 C 45.375 21.667969 45.40625 21.65625 45.4375 21.644531 C 46.347656 23.660156 46.78125 25.898438 45.09375 30.566406 C 47.730469 27.039062 46.59375 26.589844 48.933594 24.855469 C 47.175781 23.929688 47.152344 22.722656 47.304688 22.058594 C 47.570312 20.925781 48.523438 20.003906 49.664062 19.578125 C 51.246094 18.988281 52.097656 19.777344 53.394531 20.710938 C 52.59375 19.21875 52.296875 18.007812 52.199219 17.566406 Z M 52.199219 17.566406 " fill-opacity="1" fill-rule="evenodd"/></g><path fill="#ffffff" d="M 37.128906 20.878906 C 33.171875 20.089844 29.710938 18.160156 27.9375 17.554688 C 30.9375 16.246094 34.074219 15.164062 37.070312 14.707031 C 36.351562 15.515625 35.914062 16.585938 35.914062 17.761719 C 35.914062 18.96875 36.375 20.0625 37.128906 20.878906 Z M 44.042969 15.144531 C 45.378906 15.65625 46.3125 16.382812 47.167969 17.046875 C 47.617188 17.394531 48.144531 17.703125 48.699219 17.949219 C 47.121094 19.433594 45.433594 20.324219 43.71875 20.792969 C 44.425781 19.988281 44.855469 18.925781 44.855469 17.761719 C 44.855469 16.785156 44.554688 15.886719 44.042969 15.144531 Z M 44.042969 15.144531 " fill-opacity="1" fill-rule="evenodd"/></svg>