<?xml version="1.0" standalone="no"?>
<!DOCTYPE svg PUBLIC "-//W3C//DTD SVG 20010904//EN"
 "http://www.w3.org/TR/2001/REC-SVG-20010904/DTD/svg10.dtd">
<svg version="1.0" xmlns="http://www.w3.org/2000/svg"
 width="1813.000000pt" height="991.000000pt" viewBox="0 0 1813.000000 991.000000"
 preserveAspectRatio="xMidYMid meet">
<metadata>
Created by potrace 1.15, written by Peter Selinger 2001-2017
</metadata>
<g transform="translate(0.000000,991.000000) scale(0.100000,-0.100000)"
fill="#000000" stroke="none">
<path d="M6745 9495 c-11 -2 -85 -9 -165 -15 -304 -25 -570 -77 -757 -148
-174 -66 -300 -183 -336 -312 -26 -94 -27 -118 -12 -193 53 -252 292 -487 926
-908 136 -90 259 -171 275 -180 16 -9 72 -43 124 -76 52 -33 126 -77 163 -99
38 -21 81 -46 95 -55 32 -19 90 -53 152 -87 25 -14 74 -42 110 -62 62 -36 106
-60 300 -163 47 -24 112 -59 145 -77 33 -18 323 -165 645 -327 794 -401 1349
-683 1545 -788 50 -26 117 -62 150 -80 33 -17 110 -58 170 -90 61 -32 133 -70
160 -85 28 -15 75 -41 105 -57 30 -17 111 -61 180 -98 133 -72 831 -471 915
-523 28 -17 77 -47 110 -67 374 -224 722 -463 697 -479 -22 -13 -159 -37 -257
-45 -421 -35 -740 -51 -1046 -54 l-276 -2 -139 70 c-76 39 -217 112 -312 163
-96 50 -176 92 -177 92 -2 0 -57 29 -122 63 -65 35 -167 90 -228 122 -60 32
-132 70 -160 85 -27 15 -99 53 -160 85 -60 32 -132 71 -158 87 -26 15 -50 28
-52 28 -2 0 -86 45 -186 100 -100 55 -184 100 -186 100 -2 0 -51 27 -109 60
-58 33 -108 60 -110 60 -3 0 -67 36 -144 80 -77 44 -141 80 -144 80 -3 0 -68
36 -145 80 -78 44 -143 80 -145 80 -1 0 -110 61 -241 135 -131 74 -239 135
-242 135 -2 0 -504 287 -1116 637 -612 350 -1142 654 -1179 675 -37 21 -71 38
-74 38 -4 0 -15 6 -23 14 -9 7 -36 24 -61 37 -25 13 -138 77 -252 141 -114 65
-210 118 -212 118 -3 0 -68 36 -145 80 -78 44 -143 80 -145 80 -3 0 -31 15
-63 34 -32 18 -92 51 -133 73 -41 22 -115 62 -165 88 -212 114 -349 185 -670
344 -325 162 -510 251 -520 251 -2 0 -39 16 -82 36 -106 49 -147 67 -223 99
-36 15 -78 33 -95 41 -109 50 -551 214 -712 265 -35 10 -93 28 -130 40 -231
72 -363 107 -700 185 -99 23 -261 37 -353 31 -135 -9 -228 -60 -292 -160 -32
-50 -33 -56 -33 -152 0 -91 3 -105 30 -160 59 -119 281 -317 627 -560 32 -22
86 -60 120 -84 109 -77 550 -371 618 -413 36 -21 110 -68 165 -103 55 -35 127
-81 160 -100 33 -20 92 -56 130 -80 39 -24 108 -67 155 -95 47 -28 162 -98
255 -155 94 -57 230 -139 303 -182 73 -43 145 -85 160 -94 15 -9 90 -54 167
-99 394 -233 536 -319 687 -413 51 -32 102 -63 113 -70 75 -46 454 -298 536
-356 20 -15 58 -41 85 -60 271 -191 985 -752 1044 -822 3 -3 39 -34 80 -69 80
-68 420 -405 484 -480 73 -85 173 -226 215 -303 50 -91 55 -132 18 -161 -14
-12 -44 -36 -67 -55 -56 -45 -100 -137 -100 -208 0 -112 77 -218 189 -262 60
-24 64 -24 289 -17 690 22 1275 44 1492 56 96 6 229 10 295 10 66 0 217 4 335
10 288 13 840 29 1363 40 497 10 457 16 670 -94 175 -90 426 -219 657 -339 96
-49 231 -119 300 -155 69 -36 197 -102 285 -147 266 -137 444 -229 560 -290
61 -31 164 -86 230 -120 295 -154 394 -206 577 -303 51 -28 145 -77 208 -109
302 -157 416 -216 425 -223 6 -4 46 -27 90 -50 44 -24 107 -57 140 -75 33 -17
110 -58 170 -90 61 -33 128 -69 150 -81 22 -12 85 -45 140 -74 55 -29 132 -70
172 -91 40 -21 108 -58 151 -80 42 -23 100 -54 127 -69 28 -15 95 -51 150 -80
55 -29 105 -56 110 -60 6 -4 55 -31 109 -60 55 -29 137 -75 184 -102 46 -26
86 -48 88 -48 2 0 44 -22 92 -49 184 -104 243 -135 423 -224 353 -175 411
-192 497 -148 95 49 126 144 78 247 -46 99 -293 300 -623 505 -244 152 -1077
637 -1343 781 -106 58 -317 171 -435 234 -60 32 -132 71 -160 86 -61 33 -83
45 -260 138 -77 40 -171 89 -210 110 -38 20 -133 70 -210 110 -77 40 -169 89
-205 108 -36 19 -139 73 -230 120 -91 46 -194 100 -230 120 -82 44 -250 132
-455 237 -763 393 -740 380 -743 403 -3 16 5 20 50 25 29 4 78 7 108 7 108 0
446 50 620 91 47 11 127 41 178 65 109 53 180 118 227 211 28 54 30 66 30 163
-1 100 -2 108 -37 180 -20 42 -66 110 -102 152 -66 77 -258 239 -400 336 -42
28 -89 61 -104 71 -49 34 -255 166 -342 220 -47 29 -92 57 -100 62 -90 56
-254 152 -555 324 -198 113 -367 210 -375 215 -8 6 -22 13 -30 17 -8 3 -65 35
-127 70 -62 35 -114 63 -117 63 -3 0 -31 15 -63 34 -32 18 -97 54 -145 80 -49
25 -126 66 -173 91 -47 25 -122 65 -167 89 -339 179 -500 262 -1048 538 -699
353 -1227 621 -1292 656 -29 16 -102 55 -163 87 -60 33 -128 69 -150 82 -22
12 -47 26 -55 30 -25 11 -361 203 -420 240 -30 19 -89 55 -130 80 -120 74
-133 82 -380 247 -283 189 -286 191 -425 303 -86 68 -111 94 -113 116 -2 15
-1 27 1 27 3 0 41 7 84 16 262 52 449 66 898 68 309 1 435 -3 675 -22 162 -12
322 -27 355 -32 33 -5 132 -17 220 -25 88 -9 176 -20 195 -25 19 -5 76 -14
125 -20 115 -14 337 -48 395 -61 25 -6 92 -19 150 -29 132 -24 279 -53 395
-78 242 -54 327 -73 410 -93 50 -12 115 -27 145 -34 30 -8 99 -25 153 -39 53
-14 141 -38 195 -52 437 -115 934 -270 1282 -399 85 -32 205 -75 265 -96 61
-22 119 -43 130 -48 11 -6 52 -22 90 -36 191 -71 360 -147 670 -301 160 -79
309 -146 332 -150 86 -13 191 49 213 127 24 81 6 151 -51 207 -110 108 -743
476 -1054 612 -27 12 -84 38 -125 57 -41 20 -111 50 -155 68 -44 18 -91 37
-105 43 -64 27 -209 83 -236 92 -16 5 -60 21 -99 35 -85 31 -277 95 -480 160
-82 26 -175 55 -205 65 -30 10 -91 28 -135 40 -44 12 -107 30 -140 40 -63 19
-174 50 -290 81 -38 10 -110 29 -160 42 -49 14 -133 34 -185 46 -52 13 -129
31 -170 41 -121 31 -273 64 -535 115 -44 9 -122 23 -174 31 -52 8 -112 19
-135 24 -39 10 -94 18 -401 60 -77 10 -169 24 -205 30 -36 5 -137 17 -225 25
-88 8 -198 20 -245 25 -169 19 -463 31 -855 35 -220 2 -409 2 -420 0z m-5035
-875 c0 -5 11 -10 25 -10 26 0 126 -32 255 -81 145 -55 363 -141 379 -149 9
-5 86 -39 171 -76 85 -37 202 -89 260 -117 58 -27 142 -67 188 -88 112 -53
405 -199 527 -264 55 -29 152 -80 215 -113 102 -52 227 -119 450 -240 36 -19
94 -52 130 -72 36 -20 97 -54 135 -75 39 -21 122 -67 185 -103 63 -36 135 -76
160 -89 25 -13 52 -28 60 -33 33 -20 2248 -1285 2290 -1307 25 -13 63 -35 85
-49 22 -13 47 -27 55 -31 8 -3 124 -69 257 -145 134 -76 244 -138 247 -138 2
0 67 -36 145 -80 77 -44 143 -80 145 -80 2 0 62 -33 133 -73 70 -41 164 -93
208 -117 44 -24 110 -60 147 -81 36 -22 69 -39 73 -39 4 0 37 -17 73 -39 37
-21 96 -54 132 -73 87 -47 289 -156 372 -202 156 -84 208 -112 308 -164 57
-31 115 -65 129 -78 l24 -22 -84 -6 c-46 -3 -178 -8 -294 -11 -741 -22 -1338
-42 -1560 -54 -377 -19 -631 -23 -642 -9 -6 7 -15 38 -21 68 -35 185 -140 390
-311 605 -177 222 -444 490 -771 772 -135 116 -619 505 -676 543 -13 8 -74 54
-136 101 -62 47 -149 112 -193 143 -77 54 -632 425 -705 471 -19 12 -60 38
-90 57 -30 20 -80 50 -110 67 -30 17 -109 65 -175 105 -66 40 -210 126 -320
191 -395 234 -882 525 -1040 622 -49 31 -110 68 -133 82 -24 14 -55 33 -67 41
-13 8 -52 33 -87 54 -35 22 -101 64 -148 94 -47 30 -101 65 -120 77 -143 91
-271 178 -282 194 -7 10 -20 20 -28 24 -10 4 -8 6 8 6 12 1 22 -3 22 -9z"/>
<path d="M17437 746 c-132 -48 -202 -168 -177 -304 27 -148 189 -244 330 -197
64 21 136 84 161 140 26 56 25 165 -1 220 -56 116 -200 181 -313 141z"/>
</g>
</svg>
